<svg width="272" height="64" viewBox="0 0 272 64" fill="none" xmlns="http://www.w3.org/2000/svg">
<g clip-path="url(#clip0)">
<path d="M93.3504 16.8363L85.3082 28.4487V36.9044C85.3082 38.4452 84.0304 39.7605 82.452 39.7605C80.8361 39.7605 79.5583 38.4452 79.5583 36.9044V28.5239L71.4784 16.8363C71.0651 16.3101 70.9147 15.7464 70.9147 15.1827C70.9147 13.6043 72.1549 12.4017 73.6957 12.4017C74.5601 12.4017 75.4244 12.8151 75.9506 13.6043L82.452 23.4881L88.8783 13.6043C89.4045 12.8527 90.2312 12.4017 91.1332 12.4017C92.674 12.4017 93.9142 13.6043 93.9142 15.1827C93.9142 15.7464 93.7638 16.3101 93.3504 16.8363Z" fill="#F94857"/>
<path d="M98.3862 36.4158V15.7089C98.3862 13.7922 99.4761 12.7024 101.393 12.7024H115.11C116.463 12.7024 117.59 13.7922 117.59 15.1827C117.59 16.498 116.463 17.5879 115.11 17.5879H104.099V23.4129H114.847C116.2 23.4129 117.327 24.5403 117.327 25.8557C117.327 27.2086 116.2 28.2984 114.847 28.2984H104.099V34.4992H115.147C116.5 34.4992 117.628 35.6266 117.628 36.942C117.628 38.2949 116.5 39.4223 115.147 39.4223H101.43C99.4761 39.4599 98.3862 38.37 98.3862 36.4158Z" fill="#F94857"/>
<path d="M121.085 35.0629C121.085 33.5972 122.288 32.357 123.716 32.357C124.279 32.357 124.806 32.5074 125.257 32.8456C127.098 34.1233 129.315 34.9877 131.984 34.9877C135.103 34.9877 136.644 33.5221 136.644 31.9812C136.644 29.9895 134.314 29.2754 131.232 28.5614C126.873 27.5467 121.235 26.3441 121.235 20.3688C121.235 15.8967 125.069 12.2889 131.796 12.2889C134.84 12.2889 137.545 13.003 140.101 14.5062C140.853 14.9196 141.416 15.7839 141.416 16.761C141.416 18.1891 140.214 19.3917 138.823 19.3917C138.297 19.3917 137.809 19.2414 137.47 18.9783C135.366 17.8133 133.299 17.2496 131.42 17.2496C128.451 17.2496 127.098 18.377 127.098 19.993C127.098 21.7969 129.353 22.3606 132.434 23.0746C136.831 24.0893 142.469 25.4046 142.469 31.3424C142.469 36.2279 138.974 39.9108 131.758 39.9108C127.812 39.9108 124.73 38.8961 122.325 37.205C121.536 36.7916 121.085 35.9648 121.085 35.0629Z" fill="#F94857"/>
<path d="M146.677 36.9044V15.7089C146.677 13.7922 147.767 12.7024 149.684 12.7024H163.401C164.754 12.7024 165.881 13.7922 165.881 15.1827C165.881 16.498 164.754 17.5879 163.401 17.5879H152.352V23.4129H163.1C164.453 23.4129 165.581 24.5403 165.581 25.8557C165.581 27.2086 164.453 28.2984 163.1 28.2984H152.352V36.8668C152.352 38.4076 151.112 39.7229 149.534 39.7229C147.955 39.7605 146.677 38.4452 146.677 36.9044Z" fill="#FFBE00"/>
<path d="M190.91 35.2508C191.286 35.7394 191.474 36.2655 191.474 37.0547C191.474 38.4076 190.271 39.7605 188.73 39.7605C187.716 39.7605 186.851 39.2344 186.363 38.5579L180.35 29.8768H175.652V36.9044C175.652 38.4452 174.412 39.7605 172.834 39.7605C171.218 39.7605 169.94 38.4452 169.94 36.9044V15.7089C169.94 13.7922 171.03 12.7024 172.946 12.7024H182.454C188.016 12.7024 191.436 16.3477 191.436 21.346C191.436 25.6302 188.993 28.1105 186.325 29.0876L190.91 35.2508ZM175.69 24.9913H181.665C183.958 24.9913 185.686 23.5632 185.686 21.3084C185.686 19.0535 183.958 17.6255 181.665 17.6255H175.69V24.9913Z" fill="#FFBE00"/>
<path d="M196.171 15.3329C196.171 13.717 197.449 12.4392 199.065 12.4392C200.681 12.4392 201.959 13.717 201.959 15.3329V28.5989C201.959 32.3194 203.988 34.9125 208.16 34.9125C212.256 34.9125 214.285 32.357 214.285 28.5989V15.3329C214.285 13.717 215.563 12.4392 217.179 12.4392C218.795 12.4392 220.073 13.717 220.073 15.3329V28.7868C220.073 35.4386 216.277 39.9859 208.16 39.9859C199.967 39.9859 196.171 35.401 196.171 28.8244V15.3329Z" fill="#FFBE00"/>
<path d="M247.281 36.9794C247.281 38.4075 246.154 39.7604 244.575 39.7604C243.748 39.7604 242.997 39.4973 242.546 38.896L233.639 28.862L231.46 31.2672V36.9418C231.46 38.4827 230.219 39.798 228.603 39.798C227.025 39.798 225.747 38.4827 225.747 36.9418V15.2953C225.747 13.717 227.025 12.4392 228.603 12.4392C230.219 12.4392 231.46 13.717 231.46 15.2953V24.7281L241.757 13.3411C242.32 12.7399 242.997 12.4768 243.748 12.4768C245.214 12.4768 246.379 13.717 246.379 15.1074C246.379 15.7839 246.191 16.3852 245.703 16.8737L237.585 25.4421L246.529 35.2131C247.018 35.7017 247.281 36.3406 247.281 36.9794Z" fill="#FFBE00"/>
<path d="M257.879 36.9043V17.7381H252.317C250.964 17.7381 249.799 16.6107 249.799 15.2578C249.799 13.8673 250.964 12.7399 252.317 12.7399H269.191C270.544 12.7399 271.709 13.8673 271.709 15.2578C271.709 16.6107 270.544 17.7381 269.191 17.7381H263.629V36.9043C263.629 38.4451 262.351 39.7604 260.773 39.7604C259.157 39.7604 257.879 38.4451 257.879 36.9043Z" fill="#FFBE00"/>
<path d="M76.0633 60.0164C74.8983 60.0164 73.9588 59.6406 73.2072 58.9266C72.4556 58.175 72.0798 57.2355 72.0798 56.0329C72.0798 54.9055 72.4556 53.9659 73.1696 53.2143C73.8836 52.4251 74.7856 52.0493 75.8754 52.0493C77.078 52.0493 78.0175 52.4627 78.6564 53.2519C79.2953 54.0411 79.5959 55.0558 79.5959 56.2208C79.5959 56.3335 79.5959 56.5214 79.5583 56.7845H74.2219C74.3346 57.273 74.5225 57.6488 74.8607 57.9119C75.199 58.175 75.6124 58.2877 76.1009 58.2877C76.7774 58.2877 77.3787 58.0247 77.9424 57.4985L79.1825 58.5884C78.4309 59.5655 77.3787 60.0164 76.0633 60.0164ZM74.1843 55.4316H77.4538C77.3787 54.943 77.2283 54.5296 76.9277 54.229C76.6646 53.9284 76.2888 53.778 75.8378 53.778C75.3869 53.778 75.0486 53.9284 74.748 54.229C74.4849 54.5296 74.297 54.9055 74.1843 55.4316Z" fill="#B7D000"/>
<path d="M85.496 59.8662V52.1997H87.6757V55.3565L90.4191 52.1997H92.937L90.1184 55.3565L93.2752 59.8662H90.6821L88.6528 56.9349L87.6757 58.0247V59.8662H85.496Z" fill="#B7D000"/>
<path d="M98.9876 54.6424L98.048 53.3271C98.9124 52.5379 100.002 52.1245 101.28 52.1245C102.107 52.1245 102.821 52.3124 103.347 52.7258C103.911 53.1392 104.174 53.6277 104.174 54.1915C104.174 54.9807 103.798 55.5819 103.009 55.9202C103.911 56.2584 104.362 56.8221 104.362 57.7241C104.362 58.4005 104.061 58.9642 103.497 59.4152C102.934 59.8662 102.182 60.0916 101.28 60.0916C99.8519 60.0916 98.7245 59.6782 97.785 58.8891L98.7996 57.4986C99.4761 58.0623 100.228 58.3629 101.092 58.3629C101.43 58.3629 101.693 58.2878 101.881 58.1374C102.107 57.9871 102.22 57.7992 102.22 57.5737C102.22 57.3482 102.107 57.1603 101.881 57.01C101.656 56.8597 101.355 56.7845 100.942 56.7845H100.04V55.4316H100.942C101.28 55.4316 101.543 55.3565 101.731 55.2061C101.919 55.0558 102.032 54.8679 102.032 54.6424C102.032 54.4545 101.919 54.2666 101.731 54.1163C101.543 53.966 101.318 53.8908 101.017 53.8908C100.228 53.8156 99.5513 54.0787 98.9876 54.6424Z" fill="#B7D000"/>
<path d="M117.026 58.889C116.237 59.6782 115.222 60.054 114.057 60.054C112.892 60.054 111.878 59.6782 111.088 58.889C110.299 58.1374 109.923 57.1603 109.923 56.0329C109.923 54.9055 110.337 53.9659 111.126 53.2143C111.915 52.4251 112.892 52.0493 114.095 52.0493C115.26 52.0493 116.275 52.4251 117.064 53.2143C117.853 53.9659 118.229 54.943 118.229 56.0705C118.229 57.1603 117.815 58.0998 117.026 58.889ZM114.095 58.175C114.696 58.175 115.185 57.9871 115.523 57.5737C115.899 57.1603 116.049 56.6717 116.049 56.0705C116.049 55.5067 115.861 54.9806 115.485 54.5672C115.11 54.1538 114.621 53.9284 114.02 53.9284C113.418 53.9284 112.93 54.1163 112.592 54.5296C112.216 54.943 112.066 55.4316 112.066 56.0329C112.066 56.5966 112.253 57.1227 112.629 57.5361C113.005 57.9495 113.494 58.175 114.095 58.175Z" fill="#B7D000"/>
<path d="M130.067 52.1997V54.0412H127.774V59.8286H125.557V54.0412H123.265V52.1997H130.067Z" fill="#B7D000"/>
<path d="M142.694 52.1997V59.8662H140.59V55.3941L137.583 59.8662H135.554V52.1997H137.658V56.6718L140.665 52.1997H142.694Z" fill="#B7D000"/>
<path d="M150.887 52.1997V54.6049C150.887 55.4316 151.225 55.845 151.939 55.845C152.427 55.845 152.916 55.7323 153.442 55.4692V52.1621H155.622V59.8286H153.442V57.1603C152.766 57.4986 152.052 57.6489 151.375 57.6489C150.586 57.6489 149.947 57.4234 149.459 57.01C148.97 56.5591 148.707 55.9578 148.707 55.1686V52.1621H150.887V52.1997Z" fill="#B7D000"/>
<path d="M168.888 52.1997V59.8662H166.708V56.9349H164.04V59.8662H161.86V52.1997H164.04V55.131H166.708V52.1997H168.888Z" fill="#B7D000"/>
<path d="M175.164 51.3353V49.4187H177.456V51.3353H175.164ZM175.239 59.8662V52.1997H177.419V59.8662H175.239Z" fill="#B7D000"/>
<path d="M198.915 62.1585H196.735V59.34C196.585 59.5279 196.359 59.6406 196.059 59.7909C195.758 59.9037 195.457 59.9788 195.119 59.9788C194.18 59.9788 193.428 59.6406 192.864 58.9266C192.301 58.2126 192 57.273 192 56.0704C192 54.8679 192.301 53.8908 192.864 53.1767C193.428 52.4627 194.18 52.1245 195.119 52.1245C195.457 52.1245 195.758 52.1996 196.059 52.35C196.359 52.5003 196.585 52.6506 196.735 52.8385V49.8696H198.915V52.8385C199.065 52.6506 199.291 52.4627 199.591 52.35C199.892 52.1996 200.192 52.1245 200.531 52.1245C201.47 52.1245 202.222 52.4627 202.786 53.1767C203.349 53.8908 203.65 54.8303 203.65 56.0704C203.65 57.273 203.349 58.2501 202.786 58.9266C202.222 59.6406 201.47 59.9788 200.531 59.9788C200.192 59.9788 199.892 59.9037 199.591 59.7909C199.291 59.6782 199.065 59.5279 198.915 59.34V62.1585ZM195.796 53.9283C195.269 53.9283 194.894 54.1163 194.593 54.4921C194.292 54.8679 194.18 55.394 194.18 56.0329C194.18 56.7093 194.33 57.1979 194.593 57.5737C194.856 57.9495 195.269 58.1374 195.796 58.1374C196.096 58.1374 196.434 58.0246 196.735 57.7992V54.3042C196.359 54.0411 196.059 53.9283 195.796 53.9283ZM199.817 53.9283C199.516 53.9283 199.215 54.0411 198.877 54.3042V57.7992C199.178 58.0246 199.478 58.1374 199.817 58.1374C200.343 58.1374 200.756 57.9495 201.019 57.5737C201.282 57.1979 201.433 56.6717 201.433 56.0329C201.433 55.394 201.282 54.8679 201.019 54.4921C200.756 54.1163 200.343 53.9283 199.817 53.9283Z" fill="#B7D000"/>
<path d="M209.512 62.1585V52.1996H211.692V53.2895C212.293 52.4627 213.083 52.0493 214.097 52.0493C215.037 52.0493 215.864 52.4251 216.54 53.1392C217.216 53.8532 217.555 54.8303 217.555 56.0705C217.555 57.273 217.216 58.2501 216.54 58.9642C215.864 59.6782 215.037 60.0164 214.06 60.0164C213.12 60.0164 212.293 59.6406 211.655 58.889V62.1961H209.512V62.1585ZM212.218 57.5737C212.594 57.9871 213.007 58.175 213.534 58.175C214.06 58.175 214.511 57.9871 214.849 57.5737C215.225 57.1603 215.375 56.6718 215.375 56.0329C215.375 55.4316 215.187 54.9055 214.849 54.4921C214.473 54.0787 214.06 53.8908 213.534 53.8908C213.007 53.8908 212.556 54.0787 212.218 54.4921C211.842 54.9055 211.692 55.394 211.692 56.0329C211.655 56.6718 211.842 57.1603 212.218 57.5737Z" fill="#B7D000"/>
<path d="M225.296 62.1962C224.62 62.1962 223.981 62.0083 223.38 61.6701L224.094 60.0917C224.432 60.2796 224.733 60.3923 225.033 60.3923C225.372 60.3923 225.635 60.242 225.785 59.9038L222.779 52.1997H225.071L226.8 57.4234L228.491 52.1997H230.746L227.814 60.0541C227.514 60.8433 227.176 61.407 226.8 61.7076C226.424 62.0083 225.935 62.1962 225.296 62.1962Z" fill="#B7D000"/>
<path d="M236.345 59.8662V52.1997H238.525V55.3565L241.268 52.1997H243.786L240.968 55.3565L244.124 59.8662H241.531L239.502 56.9349L238.525 58.0247V59.8662H236.345Z" fill="#B7D000"/>
<path d="M255.361 52.1997V54.0412H253.069V59.8286H250.851V54.0412H248.559V52.1997H255.361Z" fill="#B7D000"/>
<path d="M267.951 52.1997V59.8662H265.846V55.3941L262.84 59.8662H260.81V52.1997H262.915V56.6718L265.921 52.1997H267.951Z" fill="#B7D000"/>
<path d="M25.5924 7.17792C25.5924 7.17792 32.7703 4.62243 33.785 0C35.3258 4.8855 42.5037 7.17792 42.5037 7.17792H25.5924Z" fill="#B7D000"/>
<path d="M53.9283 13.6794C53.9283 13.6794 59.603 18.7528 64.1503 17.4751C60.6177 21.158 62.0082 28.5614 62.0082 28.5614L53.9283 13.6794Z" fill="#B7D000"/>
<path d="M5.74985 38.4827C5.74985 38.4827 4.39694 30.9666 0 29.2003C5.0734 28.4862 8.49325 21.7593 8.49325 21.7593L5.74985 38.4827Z" fill="#B7D000"/>
<path d="M26.2314 60.5802C26.2314 60.5802 18.7153 59.1897 15.5209 62.6847C16.6108 57.6864 11.575 52.0869 11.575 52.0869L26.2314 60.5802Z" fill="#B7D000"/>
<path d="M56.6341 50.0951C56.6341 50.0951 52.8384 57.3858 55.9576 64C50.4708 58.4756 42.5037 59.3775 42.5037 59.3775L56.6341 50.0951Z" fill="#B7D000"/>
<path d="M34.0481 63.0605C49.9467 63.0605 62.835 50.1722 62.835 34.2737C62.835 18.3751 49.9467 5.48682 34.0481 5.48682C18.1496 5.48682 5.26129 18.3751 5.26129 34.2737C5.26129 50.1722 18.1496 63.0605 34.0481 63.0605Z" fill="#F94857"/>
<path d="M34.0481 59.6406C48.0579 59.6406 59.4151 48.2834 59.4151 34.2736C59.4151 20.2638 48.0579 8.90662 34.0481 8.90662C20.0383 8.90662 8.68109 20.2638 8.68109 34.2736C8.68109 48.2834 20.0383 59.6406 34.0481 59.6406Z" fill="#E5EBEF"/>
<path d="M21.6466 29.0499C21.9472 29.4257 22.6236 30.8162 22.2478 31.1168C21.872 31.4174 20.6319 30.4779 20.3312 30.1397C20.0306 29.8015 20.1057 29.2378 20.444 28.9371C20.8198 28.6365 21.3459 28.6741 21.6466 29.0499Z" fill="#07123A"/>
<path d="M28.1104 44.4204C28.1104 44.8714 27.7346 46.4122 27.2837 46.4122C26.8327 46.4122 26.4193 44.9089 26.4193 44.4204C26.4193 43.9694 26.7951 43.556 27.2461 43.556C27.7346 43.556 28.1104 43.9318 28.1104 44.4204Z" fill="#07123A"/>
<path d="M48.141 50.8843C47.69 50.8843 46.1492 50.5084 46.1492 50.0575C46.1492 49.6065 47.6525 49.1931 48.1034 49.1931C48.5544 49.1931 48.9678 49.5689 48.9678 50.0199C48.9678 50.4709 48.6296 50.8843 48.141 50.8843Z" fill="#07123A"/>
<path d="M42.1655 20.2561C42.5789 20.0306 44.0821 19.6172 44.3076 20.0306C44.5331 20.444 43.4057 21.4962 42.9923 21.7217C42.5789 21.9472 42.0528 21.7969 41.8273 21.3835C41.6018 20.9701 41.7521 20.4815 42.1655 20.2561Z" fill="#07123A"/>
<path d="M53.8531 38.5202C53.2518 38.9336 50.997 39.7604 50.5836 39.1591C50.1702 38.5578 51.7486 36.7539 52.3499 36.3406C52.9512 35.9272 53.7779 36.0775 54.1537 36.6788C54.5671 37.2801 54.4544 38.1068 53.8531 38.5202Z" fill="#07123A"/>
<path d="M42.391 44.7211C42.0152 44.4205 40.6247 43.744 40.3241 44.1198C40.0234 44.4956 40.9629 45.7358 41.3011 46.0364C41.677 46.3371 42.2031 46.2619 42.5037 45.9237C42.8044 45.5479 42.7668 45.0217 42.391 44.7211Z" fill="#07123A"/>
<path d="M37.7685 30.3652C37.3175 30.3652 35.7767 30.741 35.7767 31.192C35.7767 31.643 37.28 32.0564 37.7685 32.0564C38.2195 32.0564 38.6329 31.6806 38.6329 31.2296C38.5953 30.741 38.2195 30.3652 37.7685 30.3652Z" fill="#07123A"/>
<path d="M19.4291 19.354C19.4291 19.805 19.8049 21.3458 20.2559 21.3458C20.7069 21.3458 21.1203 19.8426 21.1203 19.3916C21.1203 18.9406 20.7445 18.5272 20.2935 18.5272C19.8049 18.4897 19.4291 18.8655 19.4291 19.354Z" fill="#07123A"/>
<path d="M45.5478 32.6577C45.7733 32.2443 46.1867 30.7411 45.7733 30.5156C45.3599 30.2901 44.3076 31.4175 44.0822 31.8309C43.8567 32.2443 44.007 32.7704 44.4204 32.9959C44.7962 33.2214 45.3223 33.0711 45.5478 32.6577Z" fill="#07123A"/>
<path d="M35.3635 16.5731C34.9877 15.9718 33.2214 14.3183 32.6201 14.6941C32.0188 15.0699 32.7704 17.3623 33.1462 17.9636C33.522 18.5649 34.3488 18.7528 34.9501 18.377C35.589 18.0012 35.7769 17.1744 35.3635 16.5731Z" fill="#07123A"/>
<path d="M13.7546 29.4632C13.3412 30.0645 12.5144 32.3194 13.1157 32.6952C13.717 33.071 15.5209 31.5302 15.9343 30.9289C16.3477 30.3276 16.1974 29.5008 15.5961 29.125C14.9948 28.7492 14.168 28.862 13.7546 29.4632Z" fill="#07123A"/>
<path d="M18.0765 38.8209C18.4523 38.5578 19.5045 37.4304 19.279 37.017C19.016 36.6412 17.5503 37.1297 17.1745 37.3928C16.7987 37.6559 16.686 38.182 16.949 38.5578C17.1745 38.9712 17.7006 39.0839 18.0765 38.8209Z" fill="#07123A"/>
<path d="M32.2067 27.9225C32.357 27.4715 32.4322 25.9307 31.9812 25.7804C31.5303 25.6301 30.7411 26.983 30.5907 27.3964C30.4404 27.8098 30.7035 28.3359 31.1545 28.4486C31.6054 28.5614 32.094 28.3735 32.2067 27.9225Z" fill="#07123A"/>
<path d="M53.2895 24.7657C52.8385 24.6154 51.2977 24.5402 51.1474 24.9536C50.9971 25.4046 52.3124 26.2314 52.7634 26.3441C53.2143 26.4944 53.7029 26.2314 53.8156 25.7804C53.9659 25.367 53.7405 24.8785 53.2895 24.7657Z" fill="#07123A"/>
<path d="M38.4451 52.1996C38.7833 52.5378 40.0611 53.3646 40.3993 53.064C40.7375 52.7257 39.9859 51.3728 39.6477 51.0346C39.3094 50.6964 38.7833 50.6588 38.4451 50.997C38.1068 51.3352 38.1068 51.8614 38.4451 52.1996Z" fill="#07123A"/>
<path d="M28.1478 23.939C27.6969 24.1269 26.1936 24.3148 26.0057 23.9014C25.8178 23.488 27.0956 22.5485 27.509 22.3606C27.9599 22.1727 28.4485 22.3981 28.5988 22.8115C28.7867 23.2625 28.5612 23.7511 28.1478 23.939Z" fill="#07123A"/>
<path d="M36.1527 40.9255C35.7017 40.7752 34.3864 39.986 34.5367 39.535C34.6871 39.084 36.2279 39.1592 36.6788 39.3095C37.1298 39.4598 37.3929 39.9108 37.2426 40.3618C37.0922 40.8127 36.6037 41.0758 36.1527 40.9255Z" fill="#07123A"/>
<path d="M17.024 46.2994C17.1744 45.8484 17.9636 44.5331 18.4145 44.6459C18.8655 44.7586 18.7903 46.337 18.64 46.788C18.4897 47.2389 18.0387 47.502 17.5877 47.3517C17.1368 47.2014 16.8737 46.7504 17.024 46.2994Z" fill="#07123A"/>
<path d="M47.6148 37.9566C47.7275 38.4076 47.6523 39.9484 47.2014 40.0611C46.7504 40.1739 46.074 38.7458 45.9612 38.2948C45.8485 37.8438 46.1491 37.3929 46.6001 37.2801C47.0511 37.1674 47.5396 37.468 47.6148 37.9566Z" fill="#07123A"/>
<path d="M30.8537 53.7028C30.29 54.1538 28.1479 55.2437 27.697 54.6799C27.246 54.1162 28.6365 52.162 29.1626 51.7111C29.7263 51.2601 30.5531 51.2977 31.0041 51.8614C31.4926 52.4251 31.4175 53.2519 30.8537 53.7028Z" fill="#07123A"/>
<path d="M27.4716 38.9712C27.2461 38.2947 27.1334 35.8896 27.8099 35.6641C28.4863 35.4386 29.7641 37.5055 29.952 38.182C30.1774 38.8584 29.7641 39.61 29.0876 39.8355C28.4112 40.061 27.6595 39.6476 27.4716 38.9712Z" fill="#07123A"/>
</g>
<defs>
<clipPath id="clip0">
<rect width="271.709" height="64" fill="white"/>
</clipPath>
</defs>
</svg>
